<svg width="0" height="0" class="hidden">
  <symbol fill="none" xmlns="http://www.w3.org/2000/svg" viewBox="0 0 40 36" id="building-blue">
    <path d="M36.7767 13.3215V32.9997C36.7767 34.325 35.6279 35.3997 34.2113 35.3997H5.99167C4.57508 35.3997 3.42625 34.325 3.42625 32.9997C3.42625 14.3965 3.42457 17.8814 3.43187 13.3215H36.7767Z" fill="#D1E7FF"></path>
    <path d="M36.7767 13.3215V17.8664C36.7767 18.8499 35.934 19.6647 34.8827 19.6687C34.871 19.6687 5.34078 19.6687 5.31946 19.6687C4.26844 19.6644 3.42626 18.8496 3.42626 17.8664C3.42626 16.5546 3.4253 17.4602 3.43187 13.3215H36.7767Z" fill="#B9DCFF"></path>
    <path d="M26.5952 24.6749V35.3998H13.6077V24.6749C13.6077 23.3496 14.7566 22.2749 16.1732 22.2749H24.0298C25.4464 22.2749 26.5952 23.3496 26.5952 24.6749Z" fill="#E8F3FF"></path>
    <path d="M38.7007 13.3215C38.7007 15.7228 36.6193 17.6715 34.0509 17.6715C31.4831 17.6715 29.4011 15.7237 29.4011 13.3215C29.4011 15.7237 27.3191 17.6715 24.7513 17.6715C22.1835 17.6715 20.1015 15.7237 20.1015 13.3215C20.1015 15.7237 18.0195 17.6715 15.4516 17.6715C12.8838 17.6715 10.8018 15.7237 10.8018 13.3215C10.7978 15.708 8.69817 17.6715 6.152 17.6715C3.60895 17.6715 1.50618 15.7105 1.50218 13.3215C1.50218 9.54093 1.49111 9.77358 1.53024 9.60003C1.56872 9.4297 1.30199 10.0328 5.33587 1.32309C5.5395 0.884345 6.00208 0.600098 6.51276 0.600098H33.6902C34.2008 0.600098 34.6634 0.884345 34.867 1.32309C38.9039 10.0392 38.6341 9.42955 38.6727 9.60003C38.7117 9.7732 38.7007 9.5368 38.7007 13.3215Z" fill="#B9DCFF"></path>
    <path d="M38.7007 13.3215C38.7007 15.7227 36.6193 17.6714 34.0509 17.6714C31.4831 17.6714 29.4011 15.7237 29.4011 13.3215C29.4011 15.7237 27.3191 17.6714 24.7513 17.6714C22.1834 17.6714 20.1014 15.7237 20.1014 13.3215C20.1014 15.7237 18.0194 17.6714 15.4516 17.6714C12.8838 17.6714 10.8018 15.7237 10.8018 13.3215C10.7978 15.7079 8.69814 17.6714 6.15196 17.6714C3.60891 17.6714 1.50615 15.7104 1.50214 13.3215C1.49581 9.5203 1.49677 9.74837 1.5302 9.6001H38.6727C38.7117 9.77327 38.7007 9.53687 38.7007 13.3215Z" fill="#B9DCFF"></path>
    <path d="M33.3437 3.8062C25.2003 2.7577 16.9818 4.10253 10.3345 8.78839C9.58623 9.31586 8.67422 9.60011 7.73737 9.60011H1.53033C1.56882 9.42979 1.30209 10.0329 5.33597 1.3231C5.5396 0.884348 6.00218 0.600098 6.51286 0.600098H33.6903C34.2014 0.600098 34.6638 0.884048 34.867 1.3228L35.0457 1.70845C35.5464 2.78943 34.5913 3.96685 33.3437 3.8062Z" fill="white"></path>
    <path d="M37.418 20.325V33C37.418 34.6542 35.9795 36 34.2113 36H5.99165C4.22343 36 2.78487 34.6542 2.78487 33V20.325C2.78487 19.9937 3.07204 19.725 3.42623 19.725C3.78042 19.725 4.06758 19.9937 4.06758 20.325V33C4.06758 33.9925 4.93069 34.8 5.99165 34.8H12.9664V24.675C12.9664 23.0208 14.4049 21.675 16.1732 21.675H24.0297C25.798 21.675 27.2365 23.0208 27.2365 24.675V32.4C27.2365 32.7313 26.9494 33 26.5952 33C26.241 33 25.9538 32.7313 25.9538 32.4V24.675C25.9538 23.6825 25.0906 22.875 24.0297 22.875H16.1732C15.1123 22.875 14.2491 23.6825 14.2491 24.675V34.8H19.4601V25.35C19.4601 25.0187 19.7473 24.75 20.1014 24.75C20.4556 24.75 20.7428 25.0187 20.7428 25.35V34.8H34.2113C35.2721 34.8 36.1353 33.9925 36.1353 33V20.325C36.1353 19.9937 36.4225 19.725 36.7767 19.725C37.1309 19.725 37.418 19.9936 37.418 20.325ZM5.02962 9.6C5.02962 9.93135 5.31678 10.2 5.67097 10.2C40.5661 10.2 38.836 10.2584 39.0909 10.0754C39.2242 9.9795 39.3113 9.84112 39.3352 9.68303C39.3709 9.4419 39.6011 10.0349 35.1204 0.361425C35.0186 0.141975 34.7875 0 34.5318 0H5.67089C5.41531 0 5.18402 0.14205 5.08245 0.361425L0.913642 9.36143C0.839966 9.52058 0.86073 9.26798 0.86073 13.3224C0.86538 16.0513 3.23895 18.2714 6.15191 18.2714C8.15446 18.2714 9.90207 17.2222 10.8004 15.6797C12.8067 19.129 18.0914 19.1328 20.1014 15.682C22.1098 19.13 27.3921 19.1308 29.401 15.682C30.2987 17.2232 32.0464 18.2714 34.0508 18.2714C36.9684 18.2714 39.342 16.0509 39.342 13.3214C39.342 12.9901 39.0548 12.7214 38.7006 12.7214C38.3465 12.7214 38.0593 12.9901 38.0593 13.3214C38.0593 15.3892 36.2611 17.0714 34.0508 17.0714C31.8406 17.0714 30.0424 15.3892 30.0424 13.3214C30.0424 12.9901 29.7552 12.7214 29.401 12.7214C29.0468 12.7214 28.7597 12.9901 28.7597 13.3214C28.7597 15.3892 26.9615 17.0714 24.7512 17.0714C22.5409 17.0714 20.7427 15.3892 20.7427 13.3214C20.7427 12.9901 20.4556 12.7214 20.1014 12.7214C19.7472 12.7214 19.46 12.9901 19.46 13.3214C19.46 15.3892 17.6618 17.0714 15.4515 17.0714C13.2904 17.0714 11.4431 15.4466 11.4431 13.2914C11.4431 12.9601 11.1559 12.6914 10.8017 12.6914C10.4475 12.6914 10.1604 12.9601 10.1604 13.2914C10.1604 15.4284 8.32457 17.0714 6.15191 17.0714C3.94516 17.0714 2.14689 15.3887 2.14344 13.3214V9.72435L6.09202 1.2H34.1109L37.7238 9H5.67097C5.3167 9 5.02962 9.26858 5.02962 9.6Z" fill="#007FFC"></path>
  </symbol>
  <symbol fill="none" xmlns="http://www.w3.org/2000/svg" viewBox="0 0 40 36" id="building-green">
    <path d="M36.7767 13.3215V32.9997C36.7767 34.325 35.6279 35.3997 34.2113 35.3997H5.99167C4.57508 35.3997 3.42625 34.325 3.42625 32.9997C3.42625 14.3965 3.42457 17.8814 3.43187 13.3215H36.7767Z" fill="#E1F4F5"></path>
    <path d="M36.7767 13.3215V17.8664C36.7767 18.8499 35.934 19.6647 34.8827 19.6687C34.871 19.6687 5.34078 19.6687 5.31946 19.6687C4.26844 19.6644 3.42626 18.8496 3.42626 17.8664C3.42626 16.5546 3.4253 17.4602 3.43187 13.3215H36.7767Z" fill="#CAEFF2"></path>
    <path d="M26.5952 24.6749V35.3998H13.6077V24.6749C13.6077 23.3496 14.7566 22.2749 16.1732 22.2749H24.0298C25.4464 22.2749 26.5952 23.3496 26.5952 24.6749Z" fill="#F4FEFF"></path>
    <path d="M38.7007 13.3215C38.7007 15.7228 36.6193 17.6715 34.0509 17.6715C31.4831 17.6715 29.4011 15.7237 29.4011 13.3215C29.4011 15.7237 27.3191 17.6715 24.7513 17.6715C22.1835 17.6715 20.1015 15.7237 20.1015 13.3215C20.1015 15.7237 18.0195 17.6715 15.4516 17.6715C12.8838 17.6715 10.8018 15.7237 10.8018 13.3215C10.7978 15.708 8.69817 17.6715 6.152 17.6715C3.60895 17.6715 1.50618 15.7105 1.50218 13.3215C1.50218 9.54093 1.49111 9.77358 1.53024 9.60003C1.56872 9.4297 1.30199 10.0328 5.33587 1.32309C5.5395 0.884345 6.00208 0.600098 6.51276 0.600098H33.6902C34.2008 0.600098 34.6634 0.884345 34.867 1.32309C38.9039 10.0392 38.6341 9.42955 38.6727 9.60003C38.7117 9.7732 38.7007 9.5368 38.7007 13.3215Z" fill="#CAEFF2"></path>
    <path d="M38.7007 13.3215C38.7007 15.7227 36.6193 17.6714 34.0509 17.6714C31.4831 17.6714 29.4011 15.7237 29.4011 13.3215C29.4011 15.7237 27.3191 17.6714 24.7513 17.6714C22.1834 17.6714 20.1014 15.7237 20.1014 13.3215C20.1014 15.7237 18.0194 17.6714 15.4516 17.6714C12.8838 17.6714 10.8018 15.7237 10.8018 13.3215C10.7978 15.7079 8.69814 17.6714 6.15196 17.6714C3.60891 17.6714 1.50615 15.7104 1.50214 13.3215C1.49581 9.5203 1.49677 9.74837 1.5302 9.6001H38.6727C38.7117 9.77327 38.7007 9.53687 38.7007 13.3215Z" fill="#CAEFF2"></path>
    <path d="M33.3437 3.8062C25.2003 2.7577 16.9818 4.10253 10.3345 8.78839C9.58623 9.31586 8.67422 9.60011 7.73737 9.60011H1.53033C1.56882 9.42979 1.30209 10.0329 5.33597 1.3231C5.5396 0.884348 6.00218 0.600098 6.51286 0.600098H33.6903C34.2014 0.600098 34.6638 0.884048 34.867 1.3228L35.0457 1.70845C35.5464 2.78943 34.5913 3.96685 33.3437 3.8062Z" fill="white"></path>
    <path d="M37.418 20.325V33C37.418 34.6542 35.9795 36 34.2113 36H5.99165C4.22343 36 2.78487 34.6542 2.78487 33V20.325C2.78487 19.9937 3.07204 19.725 3.42623 19.725C3.78042 19.725 4.06758 19.9937 4.06758 20.325V33C4.06758 33.9925 4.93069 34.8 5.99165 34.8H12.9664V24.675C12.9664 23.0208 14.4049 21.675 16.1732 21.675H24.0297C25.798 21.675 27.2365 23.0208 27.2365 24.675V32.4C27.2365 32.7313 26.9494 33 26.5952 33C26.241 33 25.9538 32.7313 25.9538 32.4V24.675C25.9538 23.6825 25.0906 22.875 24.0297 22.875H16.1732C15.1123 22.875 14.2491 23.6825 14.2491 24.675V34.8H19.4601V25.35C19.4601 25.0187 19.7473 24.75 20.1014 24.75C20.4556 24.75 20.7428 25.0187 20.7428 25.35V34.8H34.2113C35.2721 34.8 36.1353 33.9925 36.1353 33V20.325C36.1353 19.9937 36.4225 19.725 36.7767 19.725C37.1309 19.725 37.418 19.9936 37.418 20.325ZM5.02962 9.6C5.02962 9.93135 5.31678 10.2 5.67097 10.2C40.5661 10.2 38.836 10.2584 39.0909 10.0754C39.2242 9.9795 39.3113 9.84112 39.3352 9.68303C39.3709 9.4419 39.6011 10.0349 35.1204 0.361425C35.0186 0.141975 34.7875 0 34.5318 0H5.67089C5.41531 0 5.18402 0.14205 5.08245 0.361425L0.913642 9.36143C0.839966 9.52058 0.86073 9.26798 0.86073 13.3224C0.86538 16.0513 3.23895 18.2714 6.15191 18.2714C8.15446 18.2714 9.90207 17.2222 10.8004 15.6797C12.8067 19.129 18.0914 19.1328 20.1014 15.682C22.1098 19.13 27.3921 19.1308 29.401 15.682C30.2987 17.2232 32.0464 18.2714 34.0508 18.2714C36.9684 18.2714 39.342 16.0509 39.342 13.3214C39.342 12.9901 39.0548 12.7214 38.7006 12.7214C38.3465 12.7214 38.0593 12.9901 38.0593 13.3214C38.0593 15.3892 36.2611 17.0714 34.0508 17.0714C31.8406 17.0714 30.0424 15.3892 30.0424 13.3214C30.0424 12.9901 29.7552 12.7214 29.401 12.7214C29.0468 12.7214 28.7597 12.9901 28.7597 13.3214C28.7597 15.3892 26.9615 17.0714 24.7512 17.0714C22.5409 17.0714 20.7427 15.3892 20.7427 13.3214C20.7427 12.9901 20.4556 12.7214 20.1014 12.7214C19.7472 12.7214 19.46 12.9901 19.46 13.3214C19.46 15.3892 17.6618 17.0714 15.4515 17.0714C13.2904 17.0714 11.4431 15.4466 11.4431 13.2914C11.4431 12.9601 11.1559 12.6914 10.8017 12.6914C10.4475 12.6914 10.1604 12.9601 10.1604 13.2914C10.1604 15.4284 8.32457 17.0714 6.15191 17.0714C3.94516 17.0714 2.14689 15.3887 2.14344 13.3214V9.72435L6.09202 1.2H34.1109L37.7238 9H5.67097C5.3167 9 5.02962 9.26858 5.02962 9.6Z" fill="#52C29D"></path>
  </symbol>
  <symbol xmlns="http://www.w3.org/2000/svg" viewBox="0 0 32 32" id="dribbble">
    <path d="M 16 4 C 9.382813 4 4 9.382813 4 16 C 4 22.617188 9.382813 28 16 28 C 22.617188 28 28 22.617188 28 16 C 28 9.382813 22.617188 4 16 4 Z M 16 6 C 18.535156 6 20.832031 6.953125 22.59375 8.5 C 22.40625 8.761719 22.152344 9.078125 21.75 9.46875 C 20.894531 10.296875 19.527344 11.292969 17.4375 12.0625 C 16.023438 9.449219 14.636719 7.484375 13.71875 6.25 C 14.449219 6.082031 15.214844 6 16 6 Z M 11.75 6.9375 C 12.570313 8.011719 14.03125 10.003906 15.5 12.65625 C 11.433594 13.734375 7.703125 13.871094 6.21875 13.875 C 6.882813 10.785156 8.960938 8.242188 11.75 6.9375 Z M 23.96875 9.96875 C 25.1875 11.582031 25.945313 13.578125 26 15.75 C 25.109375 15.550781 23.796875 15.355469 22.09375 15.34375 C 21.207031 15.339844 20.203125 15.402344 19.125 15.53125 C 18.875 14.960938 18.605469 14.410156 18.34375 13.875 C 20.585938 13.015625 22.113281 11.882813 23.125 10.90625 C 23.46875 10.570313 23.738281 10.261719 23.96875 9.96875 Z M 16.40625 14.46875 C 16.636719 14.933594 16.871094 15.410156 17.09375 15.90625 C 12.820313 17.089844 9.75 20.714844 8.4375 22.53125 C 6.925781 20.78125 6 18.5 6 16 C 6 15.957031 6 15.917969 6 15.875 C 7.351563 15.890625 11.648438 15.796875 16.40625 14.46875 Z M 22.09375 17.3125 C 23.878906 17.3125 25.113281 17.5625 25.84375 17.75 C 25.378906 20.414063 23.875 22.699219 21.75 24.1875 C 21.351563 21.796875 20.695313 19.523438 19.90625 17.4375 C 20.695313 17.359375 21.441406 17.3125 22.09375 17.3125 Z M 17.875 17.78125 C 18.773438 20.0625 19.527344 22.566406 19.90625 25.21875 C 18.710938 25.722656 17.382813 26 16 26 C 13.707031 26 11.589844 25.230469 9.90625 23.9375 C 10.933594 22.53125 13.953125 18.789063 17.875 17.78125 Z"></path>
  </symbol>
  <symbol xmlns="http://www.w3.org/2000/svg" viewBox="0 0 50 50" id="facebook">
    <path d="M32,11h5c0.552,0,1-0.448,1-1V3.263c0-0.524-0.403-0.96-0.925-0.997C35.484,2.153,32.376,2,30.141,2C24,2,20,5.68,20,12.368 V19h-7c-0.552,0-1,0.448-1,1v7c0,0.552,0.448,1,1,1h7v19c0,0.552,0.448,1,1,1h7c0.552,0,1-0.448,1-1V28h7.222 c0.51,0,0.938-0.383,0.994-0.89l0.778-7C38.06,19.518,37.596,19,37,19h-8v-5C29,12.343,30.343,11,32,11z"></path>
  </symbol>
  <symbol xmlns="http://www.w3.org/2000/svg" viewBox="0 0 30 30" id="github">
    <path d="M15,3C8.373,3,3,8.373,3,15c0,5.623,3.872,10.328,9.092,11.63C12.036,26.468,12,26.28,12,26.047v-2.051 c-0.487,0-1.303,0-1.508,0c-0.821,0-1.551-0.353-1.905-1.009c-0.393-0.729-0.461-1.844-1.435-2.526 c-0.289-0.227-0.069-0.486,0.264-0.451c0.615,0.174,1.125,0.596,1.605,1.222c0.478,0.627,0.703,0.769,1.596,0.769 c0.433,0,1.081-0.025,1.691-0.121c0.328-0.833,0.895-1.6,1.588-1.962c-3.996-0.411-5.903-2.399-5.903-5.098 c0-1.162,0.495-2.286,1.336-3.233C9.053,10.647,8.706,8.73,9.435,8c1.798,0,2.885,1.166,3.146,1.481C13.477,9.174,14.461,9,15.495,9 c1.036,0,2.024,0.174,2.922,0.483C18.675,9.17,19.763,8,21.565,8c0.732,0.731,0.381,2.656,0.102,3.594 c0.836,0.945,1.328,2.066,1.328,3.226c0,2.697-1.904,4.684-5.894,5.097C18.199,20.49,19,22.1,19,23.313v2.734 c0,0.104-0.023,0.179-0.035,0.268C23.641,24.676,27,20.236,27,15C27,8.373,21.627,3,15,3z"></path>
  </symbol>
  <symbol xmlns="http://www.w3.org/2000/svg" viewBox="0 0 24 24" id="instagram">
    <path d="M 8 3 C 5.243 3 3 5.243 3 8 L 3 16 C 3 18.757 5.243 21 8 21 L 16 21 C 18.757 21 21 18.757 21 16 L 21 8 C 21 5.243 18.757 3 16 3 L 8 3 z M 8 5 L 16 5 C 17.654 5 19 6.346 19 8 L 19 16 C 19 17.654 17.654 19 16 19 L 8 19 C 6.346 19 5 17.654 5 16 L 5 8 C 5 6.346 6.346 5 8 5 z M 17 6 A 1 1 0 0 0 16 7 A 1 1 0 0 0 17 8 A 1 1 0 0 0 18 7 A 1 1 0 0 0 17 6 z M 12 7 C 9.243 7 7 9.243 7 12 C 7 14.757 9.243 17 12 17 C 14.757 17 17 14.757 17 12 C 17 9.243 14.757 7 12 7 z M 12 9 C 13.654 9 15 10.346 15 12 C 15 13.654 13.654 15 12 15 C 10.346 15 9 13.654 9 12 C 9 10.346 10.346 9 12 9 z"></path>
  </symbol>
  <symbol fill="none" xmlns="http://www.w3.org/2000/svg" viewBox="0 0 67 68" id="logo">
    <path d="M66.7955 0.704102H0.204681V67.2953H66.7955V0.704102Z" fill="#252653"></path>
  </symbol>
  <symbol fill="none" xmlns="http://www.w3.org/2000/svg" viewBox="0 0 40 36" id="megaphone-blue">
    <path d="M34.2303 17.0039C35.0267 18.2942 34.0717 19.9147 32.4798 19.9722C26.6672 20.1851 20.7405 21.5432 15.1528 24.2169L13.3051 25.2144C13.3051 25.2222 13.2796 25.1736 17.7776 32.4919C18.1904 33.1615 17.9454 34.0168 17.2304 34.4037L15.7731 35.1906C15.0581 35.5767 14.143 35.3476 13.7303 34.6779L9.24365 27.4082L8.51539 27.8021C7.08461 28.5742 5.25525 28.1159 4.429 26.7774L1.06423 21.3255C0.238812 19.987 0.728747 18.2756 2.15952 17.5026L8.79689 13.9175C13.8694 10.8478 18.1678 6.78337 21.3899 2.00218C22.2394 0.74136 24.2166 0.777871 25.0129 2.06821L27.8919 6.73396C29.546 5.84058 31.6619 6.37117 32.6169 7.91865C33.5718 9.46613 33.0047 11.4448 31.3505 12.3381L34.2303 17.0039Z" fill="#D1E7FF"></path>
    <path d="M32.6168 7.91887C33.5718 9.46636 33.0046 11.445 31.3505 12.3384L27.8918 6.73416C29.546 5.84078 31.6619 6.37137 32.6168 7.91887Z" fill="#D1E7FF"></path>
    <path d="M25.0129 2.06818C25.4102 2.7125 25.3847 3.5118 24.9451 4.13157C21.3983 9.13111 16.6444 13.6487 10.8305 17.1677L3.05386 21.3681C2.51991 21.6571 2.09724 22.0572 1.80162 22.5194L1.06423 21.3254C0.238812 19.9869 0.728747 18.2755 2.15952 17.5026L8.79689 13.9174C13.8694 10.8478 18.1678 6.78333 21.3899 2.00215C22.2394 0.741332 24.2165 0.777921 25.0129 2.06818Z" fill="#E8F3FF"></path>
    <path d="M8.79689 13.9177L15.1528 24.2171C13.8791 24.9047 9.78722 27.1145 8.51538 27.8023C7.08461 28.5745 5.25524 28.1161 4.429 26.7776L1.06423 21.3257C0.238812 19.9872 0.728747 18.2758 2.15952 17.5029L8.79689 13.9177Z" fill="#B9DCFF"></path>
    <path d="M10.8097 17.1794C2.36409 21.7406 2.92378 21.4233 2.65133 21.6216C2.13823 21.9951 1.38937 21.852 1.06411 21.3254C0.23869 19.9869 0.728625 18.2756 2.1594 17.5026L8.79677 13.9175L10.8097 17.1794Z" fill="#D1E7FF"></path>
    <path d="M14.515 27.183C12.152 28.463 13.8906 27.521 10.4577 29.3744L9.24365 27.4083L13.3051 25.2153L14.515 27.183Z" fill="#B9DCFF"></path>
    <path d="M32.41 11.4495C32.136 11.8014 31.7798 12.1067 31.3504 12.3382L27.8918 6.73412C28.3212 6.50185 28.782 6.36668 29.2446 6.32007C29.4186 6.60221 32.2582 11.2035 32.41 11.4495Z" fill="#B9DCFF"></path>
    <path d="M32.231 12.5215C34.8236 10.5404 33.928 6.62262 30.6884 5.81066C29.8419 5.5985 28.9656 5.64263 28.1623 5.92889L25.5882 1.75793C24.5407 0.0605986 21.9428 0.0156194 20.8274 1.67053C17.6614 6.36843 13.4435 10.3641 8.43582 13.3962C8.15067 13.5685 8.04496 13.9246 8.21369 14.2144C8.24076 14.2608 12.5045 21.1688 12.5328 21.2145C12.7161 21.5116 13.1222 21.6137 13.4402 21.442C13.7579 21.2704 13.8668 20.8903 13.6834 20.593L9.68499 14.1141C14.4599 11.1279 18.6887 7.17449 21.9514 2.33342C22.5349 1.46747 23.8913 1.49435 24.4375 2.37941L33.6546 17.3144C34.2015 18.2006 33.5458 19.3118 32.4541 19.3516C26.3293 19.5748 20.3328 21.0403 14.8502 23.6636C14.8269 23.6747 8.61087 27.0326 8.1828 27.2638C7.07165 27.864 5.64585 27.5066 5.00445 26.4671L1.6396 21.0146C0.998115 19.9752 1.38018 18.6414 2.49125 18.0412L6.54102 15.8539C6.85873 15.6823 6.9676 15.3022 6.78416 15.0049C6.60073 14.7076 6.19433 14.6059 5.8767 14.7775L1.82694 16.9648C0.0814388 17.9076 -0.518773 20.0031 0.488998 21.6361L3.85394 27.0885C4.86179 28.7216 7.10179 29.2829 8.84729 28.3401L9.0005 28.2574L13.1549 34.989C13.7516 35.9559 15.0711 36.2871 16.1053 35.7286L17.5624 34.9416C18.5962 34.3832 18.9498 33.1487 18.3529 32.1815L15.4086 27.4106C15.2252 27.1134 14.8188 27.0116 14.5011 27.1832C14.1834 27.3548 14.0746 27.7349 14.258 28.0321L17.2023 32.803C17.432 33.1751 17.296 33.6503 16.8981 33.8651L15.441 34.6522C15.0431 34.867 14.5353 34.7397 14.3056 34.3675L10.1512 27.6359L15.4703 24.7629C20.6753 22.275 26.4658 20.8136 32.5059 20.5935C34.5992 20.5171 35.8512 18.3873 34.8052 16.6928L32.231 12.5215ZM32.0412 8.22914C32.6971 9.29186 32.4615 10.6106 31.5536 11.4239L28.8395 7.02596C30.0293 6.69945 31.3748 7.14924 32.0412 8.22914ZM38.5387 5.46613L36.8199 6.39454C36.5019 6.56622 36.0958 6.46422 35.9124 6.16708C35.7289 5.86985 35.8379 5.48974 36.1556 5.31814L37.8744 4.38973C38.1924 4.21805 38.5985 4.32005 38.7819 4.61719C38.9653 4.91441 38.8565 5.29452 38.5387 5.46613ZM31.1467 1.92402L31.5659 0.460752C31.6609 0.129194 32.0249 -0.0674254 32.3796 0.0212904C32.734 0.110162 32.9443 0.450964 32.8493 0.782444L32.4301 2.24571C32.3353 2.57641 31.972 2.77404 31.6164 2.68517C31.2621 2.5963 31.0518 2.25558 31.1467 1.92402ZM39.8353 12.1022C39.7557 12.3798 39.4873 12.5629 39.1939 12.5629C39.0737 12.5629 39.1578 12.5757 37.4574 12.1495C37.103 12.0606 36.8927 11.7199 36.9876 11.3883C37.0826 11.0568 37.4469 10.8602 37.8013 10.9489L39.3655 11.3409C39.7198 11.4298 39.9302 11.7706 39.8353 12.1022Z" fill="#007FFC"></path>
  </symbol>
  <symbol fill="none" xmlns="http://www.w3.org/2000/svg" viewBox="0 0 40 36" id="megaphone-green">
    <path d="M34.2303 17.0039C35.0267 18.2942 34.0717 19.9147 32.4798 19.9722C26.6672 20.1851 20.7405 21.5432 15.1528 24.2169L13.3051 25.2144C13.3051 25.2222 13.2796 25.1736 17.7776 32.4919C18.1904 33.1615 17.9454 34.0168 17.2304 34.4037L15.7731 35.1906C15.0581 35.5767 14.143 35.3476 13.7303 34.6779L9.24365 27.4082L8.51539 27.8021C7.08461 28.5742 5.25525 28.1159 4.429 26.7774L1.06423 21.3255C0.238812 19.987 0.728747 18.2756 2.15952 17.5026L8.79689 13.9175C13.8694 10.8478 18.1678 6.78337 21.3899 2.00218C22.2394 0.74136 24.2166 0.777871 25.0129 2.06821L27.8919 6.73396C29.546 5.84058 31.6619 6.37117 32.6169 7.91865C33.5718 9.46613 33.0047 11.4448 31.3505 12.3381L34.2303 17.0039Z" fill="#E1F4F5"></path>
    <path d="M32.6168 7.91887C33.5718 9.46636 33.0046 11.445 31.3505 12.3384L27.8918 6.73416C29.546 5.84078 31.6619 6.37137 32.6168 7.91887Z" fill="#E1F4F5"></path>
    <path d="M25.0129 2.06818C25.4102 2.7125 25.3847 3.5118 24.9451 4.13157C21.3983 9.13111 16.6444 13.6487 10.8305 17.1677L3.05386 21.3681C2.51991 21.6571 2.09724 22.0572 1.80162 22.5194L1.06423 21.3254C0.238812 19.9869 0.728747 18.2755 2.15952 17.5026L8.79689 13.9174C13.8694 10.8478 18.1678 6.78333 21.3899 2.00215C22.2394 0.741332 24.2165 0.777921 25.0129 2.06818Z" fill="#F4FEFF"></path>
    <path d="M8.79689 13.9177L15.1528 24.2171C13.8791 24.9047 9.78722 27.1145 8.51538 27.8023C7.08461 28.5745 5.25524 28.1161 4.429 26.7776L1.06423 21.3257C0.238812 19.9872 0.728747 18.2758 2.15952 17.5029L8.79689 13.9177Z" fill="#CAEFF2"></path>
    <path d="M10.8097 17.1794C2.36409 21.7406 2.92378 21.4233 2.65133 21.6216C2.13823 21.9951 1.38937 21.852 1.06411 21.3254C0.23869 19.9869 0.728625 18.2756 2.1594 17.5026L8.79677 13.9175L10.8097 17.1794Z" fill="#E1F4F5"></path>
    <path d="M14.515 27.183C12.152 28.463 13.8906 27.521 10.4577 29.3744L9.24365 27.4083L13.3051 25.2153L14.515 27.183Z" fill="#CAEFF2"></path>
    <path d="M32.41 11.4495C32.136 11.8014 31.7798 12.1067 31.3504 12.3382L27.8918 6.73412C28.3212 6.50185 28.782 6.36668 29.2446 6.32007C29.4186 6.60221 32.2582 11.2035 32.41 11.4495Z" fill="#CAEFF2"></path>
    <path d="M32.231 12.5215C34.8236 10.5404 33.928 6.62262 30.6884 5.81066C29.8419 5.5985 28.9656 5.64263 28.1623 5.92889L25.5882 1.75793C24.5407 0.0605986 21.9428 0.0156194 20.8274 1.67053C17.6614 6.36843 13.4435 10.3641 8.43582 13.3962C8.15067 13.5685 8.04496 13.9246 8.21369 14.2144C8.24076 14.2608 12.5045 21.1688 12.5328 21.2145C12.7161 21.5116 13.1222 21.6137 13.4402 21.442C13.7579 21.2704 13.8668 20.8903 13.6834 20.593L9.68499 14.1141C14.4599 11.1279 18.6887 7.17449 21.9514 2.33342C22.5349 1.46747 23.8913 1.49435 24.4375 2.37941L33.6546 17.3144C34.2015 18.2006 33.5458 19.3118 32.4541 19.3516C26.3293 19.5748 20.3328 21.0403 14.8502 23.6636C14.8269 23.6747 8.61087 27.0326 8.1828 27.2638C7.07165 27.864 5.64585 27.5066 5.00445 26.4671L1.6396 21.0146C0.998115 19.9752 1.38018 18.6414 2.49125 18.0412L6.54102 15.8539C6.85873 15.6823 6.9676 15.3022 6.78416 15.0049C6.60073 14.7076 6.19433 14.6059 5.8767 14.7775L1.82694 16.9648C0.0814388 17.9076 -0.518773 20.0031 0.488998 21.6361L3.85394 27.0885C4.86179 28.7216 7.10179 29.2829 8.84729 28.3401L9.0005 28.2574L13.1549 34.989C13.7516 35.9559 15.0711 36.2871 16.1053 35.7286L17.5624 34.9416C18.5962 34.3832 18.9498 33.1487 18.3529 32.1815L15.4086 27.4106C15.2252 27.1134 14.8188 27.0116 14.5011 27.1832C14.1834 27.3548 14.0746 27.7349 14.258 28.0321L17.2023 32.803C17.432 33.1751 17.296 33.6503 16.8981 33.8651L15.441 34.6522C15.0431 34.867 14.5353 34.7397 14.3056 34.3675L10.1512 27.6359L15.4703 24.7629C20.6753 22.275 26.4658 20.8136 32.5059 20.5935C34.5992 20.5171 35.8512 18.3873 34.8052 16.6928L32.231 12.5215ZM32.0412 8.22914C32.6971 9.29186 32.4615 10.6106 31.5536 11.4239L28.8395 7.02596C30.0293 6.69945 31.3748 7.14924 32.0412 8.22914ZM38.5387 5.46613L36.8199 6.39454C36.5019 6.56622 36.0958 6.46422 35.9124 6.16708C35.7289 5.86985 35.8379 5.48974 36.1556 5.31814L37.8744 4.38973C38.1924 4.21805 38.5985 4.32005 38.7819 4.61719C38.9653 4.91441 38.8565 5.29452 38.5387 5.46613ZM31.1467 1.92402L31.5659 0.460752C31.6609 0.129194 32.0249 -0.0674254 32.3796 0.0212904C32.734 0.110162 32.9443 0.450964 32.8493 0.782444L32.4301 2.24571C32.3353 2.57641 31.972 2.77404 31.6164 2.68517C31.2621 2.5963 31.0518 2.25558 31.1467 1.92402ZM39.8353 12.1022C39.7557 12.3798 39.4873 12.5629 39.1939 12.5629C39.0737 12.5629 39.1578 12.5757 37.4574 12.1495C37.103 12.0606 36.8927 11.7199 36.9876 11.3883C37.0826 11.0568 37.4469 10.8602 37.8013 10.9489L39.3655 11.3409C39.7198 11.4298 39.9302 11.7706 39.8353 12.1022Z" fill="#52C29D"></path>
  </symbol>
  <symbol fill="none" xmlns="http://www.w3.org/2000/svg" viewBox="0 0 25 36" id="phone-blue">
    <path d="M21.1925 0.600098C22.6091 0.600098 23.7579 1.67485 23.7579 3.0001V33.0001C23.7579 34.3254 22.6091 35.4001 21.1925 35.4001H3.55512C2.13852 35.4001 0.989685 34.3254 0.989685 33.0001V3.0001C0.989685 1.67485 2.13852 0.600098 3.55512 0.600098H21.1925Z" fill="#D1E7FF"></path>
    <path d="M16.4079 13.479C17.022 13.479 17.5366 13.9118 17.6032 14.4825L18.461 21.8535C18.5388 22.5188 17.9816 23.1 17.2657 23.1H7.48176C6.76585 23.1 6.20867 22.5188 6.28643 21.8535L7.14425 14.4825C7.21079 13.9118 7.72548 13.479 8.33958 13.479H16.4079Z" fill="#B9DCFF"></path>
    <path d="M21.3138 0.602744C23.3769 0.692519 23.2675 3.60012 21.2021 3.60012H12.8549C8.07295 3.60012 4.19649 7.22659 4.19649 11.7001V35.4001H3.55513C2.13828 35.4001 0.989685 34.3256 0.989685 33.0001V3.00012C0.989685 1.67464 2.13828 0.600119 3.55513 0.600119C3.67121 0.600119 21.2196 0.598619 21.3138 0.602744Z" fill="#E8F3FF"></path>
    <path d="M23.7579 30.1501V33.0001C23.7579 34.3254 22.6091 35.4001 21.1925 35.4001H3.55512C2.13852 35.4001 0.989685 34.3254 0.989685 33.0001V30.1501H23.7579Z" fill="#B9DCFF"></path>
    <path d="M4.19647 30.1501V33.009C4.19647 34.9636 0.989685 35.0635 0.989685 33.0001V30.1501H4.19647Z" fill="#D1E7FF"></path>
    <path d="M16.4081 15.729C12.5233 15.729 9.34781 18.4649 8.93782 21.9895C8.8643 22.6214 8.29389 23.1 7.61445 23.1H7.48177C6.76585 23.1 6.20867 22.5188 6.28643 21.8535L7.14425 14.4825C7.21079 13.9118 7.72549 13.479 8.33959 13.479H16.4079C17.0215 13.479 17.5368 13.9113 17.6032 14.4821C17.6809 15.149 17.1226 15.729 16.4081 15.729Z" fill="#D1E7FF"></path>
    <path d="M21.1924 0H3.55506C1.78683 0 0.348267 1.3458 0.348267 3V33C0.348267 34.6542 1.78683 36 3.55506 36H21.1924C22.9606 36 24.3992 34.6542 24.3992 33V3C24.3992 1.3458 22.9606 0 21.1924 0ZM21.1924 34.8H3.55506C2.49417 34.8 1.63098 33.9925 1.63098 33V3C1.63098 2.00745 2.49417 1.2 3.55506 1.2H21.1924C22.2533 1.2 23.1165 2.00745 23.1165 3V29.55H4.75761C4.40341 29.55 4.11625 29.8187 4.11625 30.15C4.11625 30.4814 4.40341 30.75 4.75761 30.75H23.1165V33C23.1165 33.9925 22.2533 34.8 21.1924 34.8ZM13.8168 32.625C13.8168 32.9564 13.5296 33.225 13.1754 33.225H11.572C11.2178 33.225 10.9307 32.9564 10.9307 32.625C10.9307 32.2937 11.2178 32.025 11.572 32.025H13.1754C13.5296 32.025 13.8168 32.2937 13.8168 32.625ZM7.48177 23.7H17.2657C18.3626 23.7 19.2174 22.8079 19.0988 21.7883L18.241 14.4176C18.139 13.5407 17.3508 12.8794 16.408 12.8794H15.8142V11.7686C15.8141 9.99383 14.2708 8.55 12.3737 8.55C10.4767 8.55 8.93333 9.99383 8.93333 11.7686V12.8793H8.33959C7.39663 12.8793 6.60865 13.5406 6.50651 14.4176L5.64877 21.7883C5.53004 22.8084 6.38553 23.7 7.48177 23.7ZM6.92387 21.9182L7.78161 14.5475C7.81272 14.2806 8.0525 14.0793 8.33951 14.0793H8.93325V15.0155C8.93325 15.3469 9.22042 15.6155 9.57461 15.6155C9.9288 15.6155 10.216 15.3469 10.216 15.0155V11.7686C10.216 10.6556 11.1839 9.75 12.3737 9.75C13.5635 9.75 14.5313 10.6555 14.5313 11.7686V12.8794H11.7571C11.403 12.8794 11.1158 13.148 11.1158 13.4794C11.1158 13.8107 11.403 14.0794 11.7571 14.0794H14.5313V15.0155C14.5313 15.3469 14.8185 15.6155 15.1727 15.6155C15.5269 15.6155 15.8141 15.3469 15.8141 15.0155V14.0794H16.4078C16.6948 14.0794 16.9346 14.2807 16.9657 14.5475L17.8234 21.9182C17.8595 22.2284 17.6012 22.5 17.2655 22.5H7.48177C7.14763 22.5 6.88772 22.2296 6.92387 21.9182Z" fill="#007FFC"></path>
  </symbol>
  <symbol fill="none" xmlns="http://www.w3.org/2000/svg" viewBox="0 0 25 36" id="phone-green">
    <path d="M21.1925 0.600098C22.6091 0.600098 23.7579 1.67485 23.7579 3.0001V33.0001C23.7579 34.3254 22.6091 35.4001 21.1925 35.4001H3.55512C2.13852 35.4001 0.989685 34.3254 0.989685 33.0001V3.0001C0.989685 1.67485 2.13852 0.600098 3.55512 0.600098H21.1925Z" fill="#E1F4F5"></path>
    <path d="M16.4079 13.479C17.022 13.479 17.5366 13.9118 17.6032 14.4825L18.461 21.8535C18.5388 22.5188 17.9816 23.1 17.2657 23.1H7.48176C6.76585 23.1 6.20867 22.5188 6.28643 21.8535L7.14425 14.4825C7.21079 13.9118 7.72548 13.479 8.33958 13.479H16.4079Z" fill="#CAEFF2"></path>
    <path d="M21.3138 0.602744C23.3769 0.692519 23.2675 3.60012 21.2021 3.60012H12.8549C8.07295 3.60012 4.19649 7.22659 4.19649 11.7001V35.4001H3.55513C2.13828 35.4001 0.989685 34.3256 0.989685 33.0001V3.00012C0.989685 1.67464 2.13828 0.600119 3.55513 0.600119C3.67121 0.600119 21.2196 0.598619 21.3138 0.602744Z" fill="#F4FEFF"></path>
    <path d="M23.7579 30.1501V33.0001C23.7579 34.3254 22.6091 35.4001 21.1925 35.4001H3.55512C2.13852 35.4001 0.989685 34.3254 0.989685 33.0001V30.1501H23.7579Z" fill="#CAEFF2"></path>
    <path d="M4.19647 30.1501V33.009C4.19647 34.9636 0.989685 35.0635 0.989685 33.0001V30.1501H4.19647Z" fill="#E1F4F5"></path>
    <path d="M16.4081 15.729C12.5233 15.729 9.34781 18.4649 8.93782 21.9895C8.8643 22.6214 8.29389 23.1 7.61445 23.1H7.48177C6.76585 23.1 6.20867 22.5188 6.28643 21.8535L7.14425 14.4825C7.21079 13.9118 7.72549 13.479 8.33959 13.479H16.4079C17.0215 13.479 17.5368 13.9113 17.6032 14.4821C17.6809 15.149 17.1226 15.729 16.4081 15.729Z" fill="#E1F4F5"></path>
    <path d="M21.1924 0H3.55506C1.78683 0 0.348267 1.3458 0.348267 3V33C0.348267 34.6542 1.78683 36 3.55506 36H21.1924C22.9606 36 24.3992 34.6542 24.3992 33V3C24.3992 1.3458 22.9606 0 21.1924 0ZM21.1924 34.8H3.55506C2.49417 34.8 1.63098 33.9925 1.63098 33V3C1.63098 2.00745 2.49417 1.2 3.55506 1.2H21.1924C22.2533 1.2 23.1165 2.00745 23.1165 3V29.55H4.75761C4.40341 29.55 4.11625 29.8187 4.11625 30.15C4.11625 30.4814 4.40341 30.75 4.75761 30.75H23.1165V33C23.1165 33.9925 22.2533 34.8 21.1924 34.8ZM13.8168 32.625C13.8168 32.9564 13.5296 33.225 13.1754 33.225H11.572C11.2178 33.225 10.9307 32.9564 10.9307 32.625C10.9307 32.2937 11.2178 32.025 11.572 32.025H13.1754C13.5296 32.025 13.8168 32.2937 13.8168 32.625ZM7.48177 23.7H17.2657C18.3626 23.7 19.2174 22.8079 19.0988 21.7883L18.241 14.4176C18.139 13.5407 17.3508 12.8794 16.408 12.8794H15.8142V11.7686C15.8141 9.99383 14.2708 8.55 12.3737 8.55C10.4767 8.55 8.93333 9.99383 8.93333 11.7686V12.8793H8.33959C7.39663 12.8793 6.60865 13.5406 6.50651 14.4176L5.64877 21.7883C5.53004 22.8084 6.38553 23.7 7.48177 23.7ZM6.92387 21.9182L7.78161 14.5475C7.81272 14.2806 8.0525 14.0793 8.33951 14.0793H8.93325V15.0155C8.93325 15.3469 9.22042 15.6155 9.57461 15.6155C9.9288 15.6155 10.216 15.3469 10.216 15.0155V11.7686C10.216 10.6556 11.1839 9.75 12.3737 9.75C13.5635 9.75 14.5313 10.6555 14.5313 11.7686V12.8794H11.7571C11.403 12.8794 11.1158 13.148 11.1158 13.4794C11.1158 13.8107 11.403 14.0794 11.7571 14.0794H14.5313V15.0155C14.5313 15.3469 14.8185 15.6155 15.1727 15.6155C15.5269 15.6155 15.8141 15.3469 15.8141 15.0155V14.0794H16.4078C16.6948 14.0794 16.9346 14.2807 16.9657 14.5475L17.8234 21.9182C17.8595 22.2284 17.6012 22.5 17.2655 22.5H7.48177C7.14763 22.5 6.88772 22.2296 6.92387 21.9182Z" fill="#52C29D"></path>
  </symbol>
  <symbol xmlns="http://www.w3.org/2000/svg" viewBox="0 0 30 30" id="twitter">
    <path d="M28,6.937c-0.957,0.425-1.985,0.711-3.064,0.84c1.102-0.66,1.947-1.705,2.345-2.951c-1.03,0.611-2.172,1.055-3.388,1.295 c-0.973-1.037-2.359-1.685-3.893-1.685c-2.946,0-5.334,2.389-5.334,5.334c0,0.418,0.048,0.826,0.138,1.215 c-4.433-0.222-8.363-2.346-10.995-5.574C3.351,6.199,3.088,7.115,3.088,8.094c0,1.85,0.941,3.483,2.372,4.439 c-0.874-0.028-1.697-0.268-2.416-0.667c0,0.023,0,0.044,0,0.067c0,2.585,1.838,4.741,4.279,5.23 c-0.447,0.122-0.919,0.187-1.406,0.187c-0.343,0-0.678-0.034-1.003-0.095c0.679,2.119,2.649,3.662,4.983,3.705 c-1.825,1.431-4.125,2.284-6.625,2.284c-0.43,0-0.855-0.025-1.273-0.075c2.361,1.513,5.164,2.396,8.177,2.396 c9.812,0,15.176-8.128,15.176-15.177c0-0.231-0.005-0.461-0.015-0.69C26.38,8.945,27.285,8.006,28,6.937z"></path>
  </symbol>
</svg> 