<svg width="0" height="0" class="hidden">
  <symbol xmlns="http://www.w3.org/2000/svg" viewBox="0 0 30 30" id="twitter-icon">
    <path d="M28,6.937c-0.957,0.425-1.985,0.711-3.064,0.84c1.102-0.66,1.947-1.705,2.345-2.951c-1.03,0.611-2.172,1.055-3.388,1.295 c-0.973-1.037-2.359-1.685-3.893-1.685c-2.946,0-5.334,2.389-5.334,5.334c0,0.418,0.048,0.826,0.138,1.215 c-4.433-0.222-8.363-2.346-10.995-5.574C3.351,6.199,3.088,7.115,3.088,8.094c0,1.85,0.941,3.483,2.372,4.439 c-0.874-0.028-1.697-0.268-2.416-0.667c0,0.023,0,0.044,0,0.067c0,2.585,1.838,4.741,4.279,5.23 c-0.447,0.122-0.919,0.187-1.406,0.187c-0.343,0-0.678-0.034-1.003-0.095c0.679,2.119,2.649,3.662,4.983,3.705 c-1.825,1.431-4.125,2.284-6.625,2.284c-0.43,0-0.855-0.025-1.273-0.075c2.361,1.513,5.164,2.396,8.177,2.396 c9.812,0,15.176-8.128,15.176-15.177c0-0.231-0.005-0.461-0.015-0.69C26.38,8.945,27.285,8.006,28,6.937z"></path>
  </symbol>
  <symbol xmlns="http://www.w3.org/2000/svg" viewBox="0 0 32 32" id="dribbble-icon">
    <path d="M 16 4 C 9.382813 4 4 9.382813 4 16 C 4 22.617188 9.382813 28 16 28 C 22.617188 28 28 22.617188 28 16 C 28 9.382813 22.617188 4 16 4 Z M 16 6 C 18.535156 6 20.832031 6.953125 22.59375 8.5 C 22.40625 8.761719 22.152344 9.078125 21.75 9.46875 C 20.894531 10.296875 19.527344 11.292969 17.4375 12.0625 C 16.023438 9.449219 14.636719 7.484375 13.71875 6.25 C 14.449219 6.082031 15.214844 6 16 6 Z M 11.75 6.9375 C 12.570313 8.011719 14.03125 10.003906 15.5 12.65625 C 11.433594 13.734375 7.703125 13.871094 6.21875 13.875 C 6.882813 10.785156 8.960938 8.242188 11.75 6.9375 Z M 23.96875 9.96875 C 25.1875 11.582031 25.945313 13.578125 26 15.75 C 25.109375 15.550781 23.796875 15.355469 22.09375 15.34375 C 21.207031 15.339844 20.203125 15.402344 19.125 15.53125 C 18.875 14.960938 18.605469 14.410156 18.34375 13.875 C 20.585938 13.015625 22.113281 11.882813 23.125 10.90625 C 23.46875 10.570313 23.738281 10.261719 23.96875 9.96875 Z M 16.40625 14.46875 C 16.636719 14.933594 16.871094 15.410156 17.09375 15.90625 C 12.820313 17.089844 9.75 20.714844 8.4375 22.53125 C 6.925781 20.78125 6 18.5 6 16 C 6 15.957031 6 15.917969 6 15.875 C 7.351563 15.890625 11.648438 15.796875 16.40625 14.46875 Z M 22.09375 17.3125 C 23.878906 17.3125 25.113281 17.5625 25.84375 17.75 C 25.378906 20.414063 23.875 22.699219 21.75 24.1875 C 21.351563 21.796875 20.695313 19.523438 19.90625 17.4375 C 20.695313 17.359375 21.441406 17.3125 22.09375 17.3125 Z M 17.875 17.78125 C 18.773438 20.0625 19.527344 22.566406 19.90625 25.21875 C 18.710938 25.722656 17.382813 26 16 26 C 13.707031 26 11.589844 25.230469 9.90625 23.9375 C 10.933594 22.53125 13.953125 18.789063 17.875 17.78125 Z"></path>
  </symbol>
  <symbol xmlns="http://www.w3.org/2000/svg" viewBox="0 0 50 50" id="facebook-icon">
    <path d="M32,11h5c0.552,0,1-0.448,1-1V3.263c0-0.524-0.403-0.96-0.925-0.997C35.484,2.153,32.376,2,30.141,2C24,2,20,5.68,20,12.368 V19h-7c-0.552,0-1,0.448-1,1v7c0,0.552,0.448,1,1,1h7v19c0,0.552,0.448,1,1,1h7c0.552,0,1-0.448,1-1V28h7.222 c0.51,0,0.938-0.383,0.994-0.89l0.778-7C38.06,19.518,37.596,19,37,19h-8v-5C29,12.343,30.343,11,32,11z"></path>
  </symbol>
  <symbol xmlns="http://www.w3.org/2000/svg" viewBox="-5.572 -4.729 47.5 45.827" id="google-plus-icon">
    <path d="M-4.294 28.338c4.03-5.689 11.812-6.163 15.645-5.649-1.066-1.146-3.753-3.279-1.857-6.795C.842 16.96-1.923 11.627-2.318 7.439-3.108.407 3.054-4.649 9.375-4.729H23.36c-.474.435-2.805 1.976-3.358 1.976l-3.674.039c9.363 8.81.276 16.198-1.581 17.738-3.753 4.543 8.02 6.795 7.388 14.499 0 6.992-5.886 11.575-15.091 11.575-10.232-.039-15.13-6.399-11.338-12.76zm20.504 8.494c3.674-2.805 2.805-6.953-.04-9.719-1.699-1.659-3.753-3.239-8.099-2.726-5.097.593-8.81 3.042-8.612 6.874 1.066 8.139 12.8 8.336 16.75 5.531v.04zm-2.489-23.901c4.227-3.477.316-15.604-5.452-15.604-3.674 0-5.57 2.646-5.729 6.4-.276 6.952 6.085 13.392 11.181 9.204zm18.686 4.424l-6.36.04v-3.2h6.282V7.914h3.2v6.282l6.36.039.039 3.161h-6.399v6.321l-3.161.04.039-6.402z"></path>
  </symbol>
</svg>